#!OML:ASF F:\VICON\USERDATA\INSTALL\rory3\rory3.ASF
:FULLY-SPECIFIED
:DEGREES
1110
root -4.85257 17.7327 -3.65202 3.66534 65.6257 -7.08949
lowerback 6.34539 -4.06904 -3.12799
upperback 3.68849 -5.50118 -0.835545
thorax 0.473589 -2.76027 1.19265
lowerneck -11.9566 -5.37866 -14.5329
upperneck 35.4269 -1.7752 -3.10736
head 14.5938 -2.84848 1.00042
rclavicle 3.1408e-014 -3.18055e-015
rhumerus 5.79359 -5.07201 -48.5645
rradius 104.818
rwrist -43.358
rhand 3.77138 11.7903
rfingers 7.12502
rthumb 29.1974 -15.9393
lclavicle 3.1408e-014 -3.18055e-015
lhumerus 3.35995 -23.1452 90.0759
lradius 83.5871
lwrist 76.4463
lhand 34.7863 28.7704
lfingers 7.12502
lthumb 57.9508 44.5359
rfemur -28.9675 -5.91001 15.26
rtibia 29.1549
rfoot -16.8361 -22.0491
rtoes 19.6686
lfemur -19.3987 5.7346 -16.7841
ltibia 33.7292
lfoot -19.2046 1.93158
ltoes -4.5457
1111
root -4.84957 17.7156 -3.6799 3.42371 65.5256 -7.34227
lowerback 6.28511 -4.04647 -3.12578
upperback 3.65421 -5.47073 -0.93756
thorax 0.459812 -2.74359 1.08299
lowerneck -11.925 -5.37315 -14.3235
upperneck 35.4045 -1.83233 -3.12636
head 14.5684 -2.8485 0.95018
rclavicle -4.92986e-014 3.18055e-014
rhumerus 5.16453 -2.1345 -48.2428
rradius 106.993
rwrist -42.3298
rhand 9.58392 14.7611
rfingers 7.12502
rthumb 34.7316 -11.8572
lclavicle -4.92986e-014 3.18055e-014
lhumerus 2.75687 -22.3128 89.545
lradius 84.6406
lwrist 76.6215
lhand 40.5582 30.4543
lfingers 7.12502
lthumb 62.8562 40.8396
rfemur -29.0554 -5.84654 15.27
rtibia 29.2082
rfoot -16.6943 -22.0885
rtoes 19.7163
lfemur -19.5289 6.26799 -16.9252
ltibia 33.7119
lfoot -19.1209 2.28671
ltoes -6.48517
1112
root -4.84729 17.7062 -3.70567 3.24209 65.4698 -7.46408
lowerback 6.33435 -4.03415 -3.10897
upperback 3.60157 -5.45749 -1.05853
thorax 0.364074 -2.73359 0.956486
lowerneck -11.9025 -5.4122 -14.3804
upperneck 35.4014 -1.90818 -3.05112
head 14.5687 -2.87987 0.978134
rclavicle 1.35174e-014 -1.43125e-014
rhumerus 4.43485 0.802078 -48.1099
rradius 109.084
rwrist -41.5394
rhand 15.0286 16.4633
rfingers 7.12502
rthumb 39.8786 -8.79931
lclavicle 1.35174e-014 -1.43125e-014
lhumerus 2.03979 -21.4413 89.1182
lradius 85.5761
lwrist 76.9795
lhand 46.1101 32.8613
lfingers 7.12502
lthumb 67.2226 35.8403
rfemur -29.0706 -5.72962 15.2014
rtibia 29.3142
rfoot -16.6664 -22.1502
rtoes 19.708
lfemur -19.5384 6.57843 -17.0428
ltibia 33.6898
lfoot -19.1118 2.537
ltoes -8.20896
1113
root -4.84571 17.703 -3.72763 3.08783 65.4581 -7.50565
lowerback 6.42277 -3.97159 -3.29185
upperback 3.44838 -5.3943 -1.2155
thorax 0.156671 -2.69895 0.908082
lowerneck -11.4688 -5.37926 -14.0312
upperneck 35.2715 -2.03479 -3.09332
head 14.3991 -2.88401 0.895417
rclavicle -6.0033e-014 -9.54166e-015
rhumerus 3.45139 3.30884 -48.2644
rradius 110.144
rwrist -39.9637
rhand 22.4774 21.0281
rfingers 7.12502
rthumb 46.8356 -1.71018
lclavicle -6.0033e-014 -9.54166e-015
lhumerus 1.02872 -20.8067 88.6551
lradius 86.2404
lwrist 77.4486
lhand 51.0378 35.4935
lfingers 7.12502
lthumb 70.6158 29.1563
rfemur -28.9805 -5.42881 15.0464
rtibia 29.3924
rfoot -16.9396 -22.2292
rtoes 20.1202
lfemur -19.4378 6.5131 -17.0933
ltibia 33.686
lfoot -19.1417 2.6226
ltoes -8.60212
1114
root -4.84172 17.7024 -3.74478 2.65986 65.4452 -7.871
lowerback 6.45901 -3.85906 -3.48278
upperback 3.1802 -5.27062 -1.34906
thorax -0.140125 -2.63263 0.8858
lowerneck -10.6315 -5.33014 -13.5211
upperneck 35.0939 -2.24488 -3.13909
head 14.1144 -2.89684 0.782858
rclavicle -6.08281e-014 -1.11319e-014
rhumerus 2.09919 5.70854 -48.6174
rradius 110.993
rwrist -38.6525
rhand 29.6485 24.7354
rfingers 7.12502
rthumb 53.3907 5.49363
lclavicle -6.08281e-014 -1.11319e-014
lhumerus -0.235179 -20.4398 88.1467
lradius 86.6166
lwrist 77.9936
lhand 54.9833 38.4479
lfingers 7.12502
lthumb 72.813 22.1594
rfemur -28.8496 -5.11308 15.0444
rtibia 29.373
rfoot -17.2222 -22.3086
rtoes 20.604
lfemur -19.3625 6.54043 -16.9848
ltibia 33.7127
lfoot -19.1634 2.57236
ltoes -8.18992
1115
root -4.83511 17.7025 -3.76045 2.26632 65.5037 -8.21565
lowerback 6.41728 -3.86314 -3.79265
upperback 3.01856 -5.29979 -1.25762
thorax -0.244982 -2.64906 1.155
lowerneck -10.1897 -5.31047 -13.7436
upperneck 34.9266 -2.30202 -2.99347
head 13.9535 -2.92021 0.881725
rclavicle 1.23644e-013 -1.74931e-014
rhumerus 1.18092 8.05706 -48.6644
rradius 111.377
rwrist -37.6533
rhand 35.5135 27.0222
rfingers 7.12502
rthumb 58.5836 11.8363
lclavicle 1.23644e-013 -1.74931e-014
lhumerus -1.34772 -19.6852 87.7644
lradius 86.8454
lwrist 78.2707
lhand 57.6587 41.0167
lfingers 7.12502
lthumb 73.9313 16.5766
rfemur -28.6865 -4.95193 15.056
rtibia 29.2537
rfoot -17.2455 -22.4287
rtoes 20.4861
lfemur -19.304 6.57525 -16.8796
ltibia 33.7555
lfoot -19.2033 2.43233
ltoes -7.78051
